# xmcd CD database file
#
# Track frame offsets:
#	213
#	21527
#	38434
#	52690
#	73062
#	90183
#	111888
#	132656
#	156255
#	182991
#	197284
#	212365
#	232563
#	253947
#	270584
#	284677
#	298870
#
# Disc length: 4315 seconds
#
# Revision: 1
# Processed by: cddbd v1.5.2PL0 Copyright (c) Steve Scherf et al.
# Submitted via: cdripper 1,0,39,0213
#
DISCID=f110d911
DTITLE=WOW Gospel - WOW Gospel 2009 [CD1]
DYEAR=2009
DGENRE=Gospel
TTITLE0=Tye Tribbett and G.A. - Stand Out
TTITLE1=Kirk Franklin - Jesus
TTITLE2=Mary Mary - Get Up
TTITLE3=Dave Hollister - Striving
TTITLE4=Kierra Sheard - Praise Him Now
TTITLE5=21-03 - Power Of Christ (Live)
TTITLE6=Crystal Aikin - Even Me
TTITLE7=Myron Butler and Levi - Jesus Saves
TTITLE8=Fred Hammond - L.O.U.D. L.O.U.D.
TTITLE9=Jason Champion - Always
TTITLE10=Deitrick Haddon - Go With Me
TTITLE11=CeCe Winans - Forever
TTITLE12=Anthony Evans - Glory To The King
TTITLE13=J. Moss - Abundantly
TTITLE14=Smokie Norful - Run Til I Finish
TTITLE15=Nicole C. Mullen - I Wish
TTITLE16=Heather Headley - Running Back To You
EXTD=YEAR: 2009
EXTT0=
EXTT1=
EXTT2=
EXTT3=
EXTT4=
EXTT5=
EXTT6=
EXTT7=
EXTT8=
EXTT9=
EXTT10=
EXTT11=
EXTT12=
EXTT13=
EXTT14=
EXTT15=
EXTT16=
PLAYORDER=
